# xmcd
#
# Track frame offsets:
#	150
#	9875
#	23832
#	35957
#	46115
#	59030
#	75335
#	87485
#	101592
#	113615
#	125032
#	137982
#
# Disc length: 1995 seconds
#
# Revision: 4
# Processed by: cddbd v1.5PL3 Copyright (c) Steve Scherf et al.
# Submitted via: audiograbber 1.83.01
#
DISCID=9b07c90c
DTITLE=Ronny - KLEINE ANNABELL
DYEAR=1900
DGENRE=
TTITLE0=Oh Susanna
TTITLE1=Nur noch einmal
TTITLE2=Laﬂ'die Sonne...
TTITLE3=Eine kleine Tr‰ne...
TTITLE4=Kleine Annabell
TTITLE5=Siera Madre del Sur
TTITLE6=Oh My Darling
TTITLE7=Tom Dooley
TTITLE8=Kein Gold am Blue River
TTITLE9=Dunja Du
TTITLE10=Mit dem Wind muﬂ...
TTITLE11=Rosen rot
EXTD=
EXTT0=
EXTT1=
EXTT2=
EXTT3=
EXTT4=
EXTT5=
EXTT6=
EXTT7=
EXTT8=
EXTT9=
EXTT10=
EXTT11=
PLAYORDER=
